<?xml version="1.0" encoding="utf-8"?>
<!-- Generator: Adobe Illustrator 19.1.0, SVG Export Plug-In . SVG Version: 6.00 Build 0)  -->
<svg version="1.1" id="Layer_1" xmlns="http://www.w3.org/2000/svg" xmlns:xlink="http://www.w3.org/1999/xlink" x="0px" y="0px"
	 viewBox="0 0 80 90.5" style="enable-background:new 0 0 80 90.5;" xml:space="preserve">
<style type="text/css">
	.st0{fill:#FFFFFF;}
	.st1{fill:#4F99DE;}
</style>
<g>
	<g>
		<g>
			<path class="st1" d="M69.4,70H10.6C4.8,70,0,65.3,0,59.4V10.6C0,4.7,4.8,0,10.6,0H62l18,22.8v36.6C80,65.3,75.2,70,69.4,70z
				 M10.6,6C8.1,6,6,8.1,6,10.6v48.8c0,2.5,2.1,4.6,4.6,4.6h58.8c2.5,0,4.6-2.1,4.6-4.6V24.9L59,6H10.6z"/>
		</g>
		<g>
			<polygon class="st1" points="5.6,57.8 1.1,53.9 20,32.2 30,44.6 51.9,20.7 79.6,50.5 75.2,54.5 51.9,29.6 29.7,53.8 19.8,41.5 
							"/>
		</g>
		<g>
			<path class="st1" d="M27.7,31.2c-6.2,0-11.2-5-11.2-11.2c0-6.2,5-11.2,11.2-11.2s11.2,5,11.2,11.2C38.8,26.2,33.8,31.2,27.7,31.2
				z M27.7,14.8c-2.9,0-5.2,2.3-5.2,5.2s2.3,5.2,5.2,5.2c2.8,0,5.2-2.3,5.2-5.2S30.5,14.8,27.7,14.8z"/>
		</g>
		<g>
			<path class="st1" d="M76.2,26.7l-18.2-5c-2-0.6-3.6-1.9-4.5-3.8c-0.9-1.9-0.9-4-0.1-5.9l4.4-10.1l5.5,2.4l-4.4,10.1
				c-0.2,0.4-0.1,0.8,0,0.9s0.3,0.5,0.7,0.6l18.2,5L76.2,26.7z"/>
		</g>
	</g>
	<ellipse class="st1" cx="40" cy="86.9" rx="19.3" ry="3.6"/>
</g>
</svg>
